<svg width="80" height="44" viewBox="0 0 80 44" fill="none" xmlns="http://www.w3.org/2000/svg">
<path d="M24.3656 0.902344V35.1129H17.3167V0.902344H24.3656ZM37.9934 15.5171V21.0151H22.439V15.5171H37.9934ZM39.6382 0.902344V6.424H22.439V0.902344H39.6382ZM56.2265 29.3798V18.0545C56.2265 17.2401 56.0934 16.5429 55.8271 15.9634C55.5608 15.3682 55.1457 14.9061 54.5818 14.5772C54.0336 14.2482 53.3208 14.0837 52.4436 14.0837C51.6917 14.0837 51.0417 14.2169 50.4934 14.4831C49.9451 14.7338 49.5223 15.1019 49.2247 15.5875C48.9271 16.0574 48.7782 16.6135 48.7782 17.2557H42.0113C42.0113 16.1748 42.262 15.149 42.7632 14.1777C43.2644 13.2066 43.9928 12.3529 44.9483 11.6166C45.9038 10.8647 47.0394 10.2774 48.3552 9.85437C49.6868 9.43152 51.1748 9.21994 52.8196 9.21994C54.7933 9.21994 56.5477 9.54896 58.0827 10.2069C59.6178 10.8648 60.8239 11.8515 61.7011 13.1673C62.594 14.4831 63.0405 16.1279 63.0405 18.1016V28.9804C63.0405 30.3745 63.1266 31.518 63.299 32.4108C63.4711 33.2881 63.7218 34.0556 64.0508 34.7135V35.1129H57.2134C56.8844 34.4237 56.6339 33.5622 56.4615 32.5282C56.3048 31.4787 56.2265 30.4293 56.2265 29.3798ZM57.1194 19.6288L57.1663 23.4587H53.3835C52.4905 23.4587 51.7152 23.5605 51.0573 23.7641C50.3994 23.9678 49.859 24.2575 49.4361 24.6335C49.0133 24.9938 48.6999 25.4168 48.4963 25.9023C48.3083 26.3879 48.2143 26.9205 48.2143 27.5001C48.2143 28.0796 48.3474 28.6044 48.6137 29.0744C48.88 29.5287 49.2638 29.8888 49.7651 30.1551C50.2663 30.4058 50.8537 30.5311 51.5272 30.5311C52.5454 30.5311 53.4304 30.3275 54.1823 29.9202C54.9342 29.5129 55.5139 29.0117 55.9211 28.4165C56.3441 27.8211 56.5633 27.2572 56.579 26.7247L58.3647 29.5912C58.114 30.2335 57.7695 30.8992 57.3308 31.5884C56.908 32.2777 56.3675 32.9278 55.7096 33.5386C55.0517 34.1339 54.2606 34.6273 53.3366 35.0189C52.4123 35.3948 51.3158 35.5828 50.0469 35.5828C48.4336 35.5828 46.969 35.2617 45.6533 34.6195C44.3531 33.9616 43.3193 33.0608 42.5517 31.9174C41.7999 30.7583 41.4239 29.4425 41.4239 27.97C41.4239 26.6386 41.6745 25.4559 42.1758 24.422C42.677 23.3882 43.4133 22.5189 44.3844 21.8139C45.3713 21.0935 46.6009 20.553 48.0734 20.1927C49.5457 19.8168 51.2531 19.6288 53.1955 19.6288H57.1194Z" fill="white"/>
<path d="M15.0376 0.526367H0V15.564H15.0376V0.526367Z" fill="white"/>
<path d="M15.0376 0.526367H0V15.564H15.0376V0.526367Z" fill="#5BFF40"/>
<path d="M71.5188 43.0376C75.6713 43.0376 79.0376 39.6713 79.0376 35.5188C79.0376 31.3663 75.6713 28 71.5188 28C67.3663 28 64 31.3663 64 35.5188C64 39.6713 67.3663 43.0376 71.5188 43.0376Z" fill="#4D7EFF"/>
</svg>
